<mxfile host="app.diagrams.net" modified="2024-01-11T19:48:12.907Z" agent="Mozilla/5.0 (Windows NT 10.0; Win64; x64) AppleWebKit/537.36 (KHTML, like Gecko) Chrome/120.0.0.0 Safari/537.36" version="22.1.18" etag="UJ2fJTzZjOCu-6uLMJNh" type="github">
  <diagram name="Page-1" id="V_lE-g6x0BU_9nBMpThT">
    <mxGraphModel>
      <root>
        <mxCell id="0" />
        <mxCell id="1" parent="0" />
      </root>
    </mxGraphModel>
  </diagram>
</mxfile>
